<svg width="32" height="32" viewBox="0 0 32 32" fill="none" xmlns="http://www.w3.org/2000/svg">
<path d="M16 28.5H16.0006C19.3145 28.4964 22.4917 27.1783 24.835 24.835C27.1783 22.4917 28.4964 19.3145 28.5 16.0005V16C28.5 13.5277 27.7669 11.111 26.3934 9.05537C25.0199 6.99976 23.0676 5.3976 20.7836 4.45151C18.4995 3.50541 15.9861 3.25787 13.5614 3.74018C11.1366 4.2225 8.90933 5.41301 7.16117 7.16116C5.41302 8.90932 4.22251 11.1366 3.74019 13.5614C3.25788 15.9861 3.50542 18.4995 4.45151 20.7835C5.39761 23.0676 6.99976 25.0199 9.05538 26.3934C11.111 27.7669 13.5277 28.5 16 28.5ZM7.38867 3.11222C9.93756 1.40911 12.9342 0.50005 15.9998 0.5C20.1093 0.50445 24.0493 2.13893 26.9552 5.04483C29.8611 7.9508 31.4956 11.8909 31.5 16.0005C31.4999 19.066 30.5909 22.0625 28.8878 24.6113C27.1846 27.1603 24.7639 29.147 21.9316 30.3201C19.0993 31.4933 15.9828 31.8002 12.9761 31.2022C9.9694 30.6041 7.20757 29.1279 5.03985 26.9602C2.87214 24.7924 1.39591 22.0306 0.797835 19.0239C0.199764 16.0172 0.506716 12.9007 1.67987 10.0684C2.85303 7.23615 4.83971 4.81538 7.38867 3.11222Z" fill="#CC0000" stroke="white"/>
<path d="M21.0603 10.9394L21.0604 10.9396C21.1997 11.0788 21.3102 11.2441 21.3856 11.4261C21.461 11.608 21.4998 11.803 21.4998 12C21.4998 12.1969 21.461 12.392 21.3856 12.5739C21.3102 12.7559 21.1997 12.9212 21.0604 13.0604L21.0603 13.0605L18.4744 15.6464L18.1209 16L18.4744 16.3535L21.0594 18.9385C21.0596 18.9387 21.0598 18.9389 21.06 18.9391C21.3396 19.2206 21.4962 19.6014 21.4957 19.9981C21.4951 20.3952 21.3372 20.7758 21.0564 21.0566C20.7757 21.3373 20.395 21.4953 19.998 21.4959C19.6012 21.4964 19.2204 21.3397 18.939 21.0601C18.9387 21.0599 18.9385 21.0597 18.9383 21.0595L16.3534 18.4746L15.9998 18.121L15.6463 18.4746L13.0603 21.0605L13.0594 21.0615C12.9202 21.2014 12.7549 21.3125 12.5727 21.3884L12.765 21.8499L12.5727 21.3884C12.3906 21.4643 12.1953 21.5035 11.998 21.5037C11.8007 21.504 11.6053 21.4653 11.4229 21.39C11.2406 21.3146 11.0749 21.204 10.9354 21.0644L10.5818 21.418L10.9354 21.0644C10.7959 20.9249 10.6852 20.7593 10.6099 20.5769C10.5345 20.3946 10.4958 20.1992 10.4961 20.0018C10.4964 19.8045 10.5356 19.6092 10.6115 19.4271C10.6873 19.245 10.7984 19.0796 10.9383 18.9405L10.9393 18.9395L13.5252 16.3535L13.8788 16L13.5252 15.6464L10.9403 13.0615C10.9402 13.0614 10.94 13.0612 10.9399 13.0611C10.6602 12.7796 10.5034 12.3987 10.504 12.0018C10.5045 11.6048 10.6625 11.2242 10.9432 10.9434C11.224 10.6627 11.6046 10.5047 12.0017 10.5041C12.3985 10.5036 12.7794 10.6603 13.0609 10.94C13.061 10.9402 13.0612 10.9403 13.0613 10.9405L15.6463 13.5254L15.9998 13.879L16.3534 13.5254L18.9393 10.9395L18.9394 10.9394C19.0786 10.8001 19.2439 10.6896 19.4259 10.6142C19.6079 10.5388 19.8029 10.5 19.9998 10.5C20.1968 10.5 20.3918 10.5388 20.5738 10.6142C20.7557 10.6896 20.921 10.8001 21.0603 10.9394Z" fill="#CC0000" stroke="white"/>
</svg>
